<svg id="Layer_1" data-name="Layer 1" xmlns="http://www.w3.org/2000/svg" viewBox="0 0 24.02 42.62"><defs><style>.cls-1{fill:#d4d5d4;}</style></defs><title>LoadScreenLogoSVG</title><path id="path837" class="cls-1" d="M9.27,40.44c0-1.6.21-2.46.66-2.68s.65-1.23.65-4.14c0-3.5.11-4,1.23-5.28a29.89,29.89,0,0,1,3.93-3.44c1.49-1.09,2.7-2.37,2.7-2.83s-1.2-1.73-2.67-2.85c-5.19-3.92-5.19-3.91-5.19-9.11,0-3.54-.14-4.61-.65-4.85s-.66-1.08-.66-2.69V.19l11.9.14,11.9.14.13,2.3c.11,1.78,0,2.28-.54,2.28S32,5.81,32,9.13a18.12,18.12,0,0,1-.62,5.53,14.58,14.58,0,0,1-3.92,3.87c-4.37,3.22-4.36,3.83.18,7.18a17.69,17.69,0,0,1,3.92,3.61A19.5,19.5,0,0,1,32,34.14c0,3,.14,3.82.65,3.82s.66.62.66,2.41v2.44h-24ZM29.8,34.23V30.51L26,27.62l-3.82-2.9L22,22.19l-.17-2.53,2.7-2c5.13-3.88,5.2-4,5.2-8.58v-4l-8.62.16-8.63.14-.13,3.36a15.79,15.79,0,0,0,.32,4.39,24,24,0,0,0,4.63,4.2c2.3,1.73,4,3.22,3.72,3.33s-.46,1-.46,2c0,1.7-.23,2-3.71,4.58A19.84,19.84,0,0,0,12.74,31c-.47,1.08-.57,6-.12,6.59.16.19,4.09.37,8.73.37h8.44ZM15,36.46a6.69,6.69,0,0,1,1.83-1.88A7.38,7.38,0,0,1,27,35.85c.76,1,.67,1-5.63,1C17.84,36.88,15,36.69,15,36.46Zm3.51-19.29c-4.61-3-4.47-3.83.32-1.64,2,.91,3.56.7,7.52-1,2.62-1.14,1.69,0-2.18,2.6l-2.84,1.92Z" transform="translate(-9.27 -0.19)"/></svg>