<svg id="Layer_1" data-name="Layer 1" xmlns="http://www.w3.org/2000/svg" viewBox="0 0 20.02 35"><defs><style>.cls-1{fill:#282828;}</style></defs><title>logo_zone</title><path id="path837" class="cls-1" d="M7.49,33.06c0-1.32.18-2,.54-2.2s.55-1,.55-3.41c0-2.87.09-3.25,1-4.33a23.89,23.89,0,0,1,3.27-2.83c1.24-.89,2.25-1.94,2.25-2.32s-1-1.43-2.23-2.34c-4.32-3.22-4.32-3.21-4.32-7.48,0-2.91-.12-3.79-.55-4S7.49,3.28,7.49,2V0l9.92.12,9.91.11.11,1.89C27.53,3.58,27.43,4,27,4s-.57.61-.57,3.34a14.23,14.23,0,0,1-.52,4.54,11.75,11.75,0,0,1-3.26,3.18C19,17.71,19,18.21,22.78,21a14.85,14.85,0,0,1,3.27,3,16,16,0,0,1,.36,4c0,2.47.12,3.13.55,3.13s.55.51.55,2v2h-20ZM24.6,28V24.9l-3.19-2.37-3.18-2.39-.11-2.07L18,16l2.25-1.65c4.28-3.18,4.34-3.29,4.34-7V4l-7.19.13-7.19.11L10.08,7a12.86,12.86,0,0,0,.27,3.61,19.55,19.55,0,0,0,3.86,3.45c1.91,1.42,3.34,2.64,3.1,2.73s-.39.83-.39,1.65c0,1.39-.19,1.65-3.09,3.76a16.43,16.43,0,0,0-3.45,3.1c-.39.88-.47,5-.1,5.42a50.57,50.57,0,0,0,7.28.29h7ZM12.22,29.78a5.61,5.61,0,0,1,1.53-1.54,6.22,6.22,0,0,1,8.5,1c.63.83.55.83-4.69.83C14.63,30.13,12.22,30,12.22,29.78Zm2.93-15.84c-3.85-2.47-3.73-3.14.26-1.34,1.67.75,3,.57,6.27-.83,2.18-.93,1.41,0-1.81,2.14L17.5,15.49Z" transform="translate(-7.49 0)"/></svg>